<svg xmlns="http://www.w3.org/2000/svg">
	<defs>
		<symbol id="eye" viewBox="0 0 22 22">
			<g transform="matrix(.02146 0 0 .02146 1 1)"><path d="m466.07 161.53c-205.6 0-382.8 121.2-464.2 296.1-2.5 5.3-2.5 11.5 0 16.9 81.4 174.9 258.6 296.1 464.2 296.1 205.6 0 382.8-121.2 464.2-296.1 2.5-5.3 2.5-11.5 0-16.9-81.4-174.9-258.6-296.1-464.2-296.1m0 514.7c-116.1 0-210.1-94.1-210.1-210.1 0-116.1 94.1-210.1 210.1-210.1 116.1 0 210.1 94.1 210.1 210.1 0 116-94.1 210.1-210.1 210.1"/><circle cx="466.08" cy="466.02" r="134.5"/></g>
		</symbol>

		<symbol id="search" viewBox="0 0 32 32">
			<g transform="translate(576 192)"><path d="M-544.88-165.121l-7.342-7.342c-1.095,1.701-2.541,3.148-4.242,4.242l7.343,7.342c1.172,1.172,3.071,1.172,4.241,0   C-543.707-162.048-543.707-163.947-544.88-165.121z"/><path d="M-552-180c0-6.627-5.373-12-12-12s-12,5.373-12,12s5.373,12,12,12S-552-173.373-552-180z M-564-171c-4.964,0-9-4.036-9-9   c0-4.963,4.036-9,9-9c4.963,0,9,4.037,9,9C-555-175.036-559.037-171-564-171z"/><path d="M-571-180h2c0-2.757,2.242-5,5-5v-2C-567.86-187-571-183.858-571-180z"/></g>
		</symbol>

		<symbol id="bars-horizontal-three" viewBox="0 0 100 100">
			<g><path d="m1,2l0,17.532244l87.316936,0l0,-17.532244l-87.316936,0zm0,52.596731l87.316936,0l0,-17.532244l-87.316936,0l0,17.532244zm0,35.064487l87.316936,0l0,-17.532244l-87.316936,0l0,17.532244z"/></g>
		</symbol>

		<symbol id="plus" viewBox="0 0 16 16">
			<g transform="translate(-672.000000, -144.000000)"><path d="M678,144 L682,144 L682,150 L688,150 L688,154 L682,154 L682,160 L678,160 L678,154 L672,154 L672,150 L678,150 Z M678,144"/></g>
		</symbol>
	</defs>
</svg>